<svg width="80" height="80" fill="none" xmlns="http://www.w3.org/2000/svg"><path d="M48.382 29.565l-2.883-.42c-.088 0-.177 0-.177.088l-1.22 1.566a.523.523 0 00-.088.349c0 .088-.089.264-.173.176l-.964-.26c-.172 0-.35 0-.42.172l-3.932 5.038c-.088.088-.177.088-.35.088l-1.485-.697a.397.397 0 00-.42 0l-.826.53a.387.387 0 01-.42 0l-.35-.173a.452.452 0 00-.61.26l-.266 1.218a.657.657 0 00.266.697l.698.42 1.831 1.133.876.52a.666.666 0 00.787-.083l1.481-1.31a.683.683 0 01.421-.084l.421.26c.173.089.35.089.42-.088l.784-.697a.39.39 0 01.42-.088l1.137.525a.569.569 0 00.522-.088l.526-.697 3.931-5.038c.173-.265.084-.613-.265-.613l-.825-.185c-.177 0-.26-.26-.177-.42l1.398-1.654c.193-.176.105-.445-.068-.445zM35.28 39.767c-.088-.088-.173 0-.173.088l.421 1.13v.264l-.349 1.478a.322.322 0 00.088.265l1.048.78a.266.266 0 00.35 0l1.136-.957a.317.317 0 01.261-.088l1.225-.172c.084 0 .084-.088 0-.176l-4.007-2.612zM34.93 43.512a.16.16 0 00-.26 0l-.876.42a.084.084 0 00-.06.026.083.083 0 00-.024.062l-1.924 4.702h.089l.42-.172v.084L30.899 50.9c0 .088 0 .088.085.088l4.89-4.966c.089 0 .089-.089.089-.177l.088-1.305c0-.089 0-.173-.088-.173l-1.031-.856z" fill="#fff"/><path d="M29.998 80l-1.937-3.615 3.368-2.33.648.903-1.065.718c-.182.13-.372.25-.568.357-.178.1-.364.186-.556.256l3.62.873-.248 1.024-3.628-.877c.095.097.183.201.265.31.08.106.155.219.231.34l.232.42.614 1.126-.976.495z" fill="#FFCD1E"/><path d="M14.139 66.188c.576-.66 1.494-.727 2.314 0l1.684 1.473-3.367 3.833-1.339-1.205c-.875-.764-1.195-1.566-.58-2.271a1.086 1.086 0 011.136-.37 1.14 1.14 0 01.152-1.46zm1.203 3.199l-.682-.592c-.42-.374-.782-.479-1.001-.227-.22.252-.068.584.366.957l.678.592.64-.73zm-.547-2.486c-.299.344-.139.764.333 1.176l.774.672.88-1.004-.775-.672c-.471-.411-.909-.52-1.212-.172zM6.554 62.686l2.323-1.763c1.07-.815 2.294-.798 3.081.23.787 1.03.476 2.213-.593 3.024L9.04 65.94l-.585-.764 2.416-1.84a1.09 1.09 0 00.495-1.178 1.086 1.086 0 00-.971-.834 1.09 1.09 0 00-.837.291L7.14 63.45l-.585-.764zM8.949 56.754l-4.512 2.372-.45-.84 4.52-2.385.442.853zM5.173 50.259l.918-.315.985 2.842-4.828 1.68-.316-.912 3.906-1.343-.665-1.952zM2.194 42.954c1.397-.193 2.655.608 2.887 2.284l.231 1.679-5.05.693-.228-1.68C-.2 44.21.8 43.143 2.194 42.954zm.13.953a1.513 1.513 0 00-1.05.568 1.502 1.502 0 00-.305 1.153l.118.882 3.131-.42-.122-.878a1.509 1.509 0 00-1.154-1.287 1.52 1.52 0 00-.61-.018h-.008zM.737 30.405l.956.188-.261 1.302 4.053.806-.19.945-4.053-.806-.26 1.297-.952-.189.707-3.543zM3.523 22.684l4.706 1.969-.375.89-1.906-.798-.842 1.999 1.907.797-.375.886-4.705-1.969.374-.89 1.903.798.841-1.998-1.902-.798.374-.886zM7 18.65l.905.612 1.014-1.495.804.542-1.014 1.495.905.613 1.22-1.793.804.542-1.763 2.59-4.21-2.855 1.76-2.59.804.546L7 18.649zM17.173 13.305L14.05 9.278l2.484-1.914.593.764-1.717 1.327.673.865 1.431-1.109.598.769-1.44 1.112 1.263 1.63-.762.583zM23.57 3.367l1.31 2.599c.602 1.196.362 2.393-.796 2.976-1.157.584-2.268.06-2.87-1.141l-1.31-2.587.864-.42 1.363 2.704a1.091 1.091 0 001.471.477 1.093 1.093 0 00.594-1.058 1.086 1.086 0 00-.116-.41L22.716 3.8l.855-.432zM30.814.99l.257.933-1.263.353 1.099 3.975-.934.252-1.095-3.971-1.262.352-.261-.936 3.46-.957zM38.862 0l.21 2.901c.097 1.335-.589 2.347-1.881 2.44-1.292.092-2.105-.811-2.21-2.15l-.21-2.897.964-.071.214 3.022a1.089 1.089 0 00.718 1.077 1.097 1.097 0 001.44-.774c.036-.15.04-.307.01-.458L37.898.067 38.862 0zM45.125 5.53L44.21 3.7l-.576-.072-.215 1.68-.96-.127.653-5.038 1.797.231c1.309.168 1.823.953 1.684 1.931a1.678 1.678 0 01-1.36 1.461l1.044 1.919-1.153-.155zM43.76 2.666l.96.122a.78.78 0 00.93-.613.744.744 0 00-.437-.774.75.75 0 00-.308-.066l-.96-.121-.185 1.452zM51.493 2.796l-.341 1.037 1.717.567-.303.92-1.717-.567-.341 1.037 2.062.68-.29.92-2.976-.983L50.9 1.574l2.98.979-.303.923-2.083-.68z" fill="#fff"/><path d="M65.033 7.641l.278 4.09-4.045.738-.219-1.095 1.263-.219c.231-.042.454-.075.665-.092a3.7 3.7 0 01.61 0l-2.946-2.284.648-.84 2.946 2.284a2.735 2.735 0 01-.113-.39 3.056 3.056 0 01-.068-.42c0-.139-.033-.298-.046-.466l-.097-1.26 1.124-.046z" fill="#FFCD1E"/><path d="M71.894 26.156l1.06-1.747-.244-.524-1.54.713-.421-.873 4.63-2.141.765 1.637c.556 1.192.165 2.045-.728 2.46a1.688 1.688 0 01-1.965-.369l-1.07 1.906-.487-1.062zm1.683-2.679l.42.873a.777.777 0 001.02.458.747.747 0 00.413-.778.74.74 0 00-.11-.292l-.421-.874-1.322.613zM76.965 34.276a2.663 2.663 0 01-2.744-1.069 2.645 2.645 0 011.098-3.94 2.662 2.662 0 012.903.497c.381.36.647.824.763 1.334.155.688.029 1.41-.35 2.006a2.668 2.668 0 01-1.67 1.172zm-.215-.94a1.684 1.684 0 001.27-1.365 1.676 1.676 0 00-.773-1.695 1.686 1.686 0 00-2.462.83c-.118.309-.141.647-.067.97a1.678 1.678 0 001.37 1.291c.22.036.445.028.662-.023v-.009zM76.17 41.619l-.876.382a2.536 2.536 0 01-.64-1.63 2.661 2.661 0 011.611-2.488 2.678 2.678 0 013.515 1.388c.14.321.214.667.22 1.017.009.6-.197 1.183-.581 1.645l-.888-.352c.325-.338.504-.791.496-1.26a1.676 1.676 0 00-.813-1.338 1.686 1.686 0 00-2.525 1.15 1.676 1.676 0 00.48 1.49v-.004zM73.665 49.083l.24-1.196 2.56-1.44-2.19-.42.19-.945 5.004.987-.189.944-2.07-.42 1.725 2.167-.24 1.192-1.97-2.594-3.06 1.725zM76.212 54.335l-1.015-.42-.686 1.68-.896-.365.681-1.68-1.01-.42-.841 2.003-.901-.365 1.183-2.897 4.726 1.923-1.187 2.897-.896-.366.841-1.99zM72.483 63.27l-.8-.538.72-1.112-3.473-2.234.522-.806 3.473 2.233.724-1.112.816.525-1.982 3.044zM64.68 66.796c-.662-.63-.704-1.633.226-2.599a2.784 2.784 0 012.046-.898l.278.936a2.227 2.227 0 00-1.633.647c-.463.483-.552.932-.295 1.18.257.247.64.109 1.17-.299 1.158-.885 1.89-.864 2.446-.331.555.533.677 1.595-.198 2.519a2.7 2.7 0 01-1.65.84l-.32-.87c.48-.06.926-.282 1.263-.63.357-.369.564-.793.27-1.078-.296-.286-.548-.118-1.146.323-.88.634-1.67 1.016-2.458.26zM62.802 71.658l-.631-.89-1.477 1.041-.56-.79 1.477-1.04-.631-.89-1.776 1.259-.56-.794 2.563-1.805 2.946 4.152-2.563 1.81-.56-.794 1.772-1.26zM53.353 73.341l1.957-.869-.05-1.037.993-.42.156 5.505-.8.352-3.986-3.808.99-.42.74.697zm.732.735l1.38 1.377-.1-1.944-1.28.567zM47.296 79.433l-.227-.944 1.292-.307-.955-4.01.938-.222.956 4.01 1.292-.307.227.94-3.523.84z" fill="#fff"/></svg>