<?xml version="1.0" standalone="no"?>
<!DOCTYPE svg PUBLIC "-//W3C//DTD SVG 20010904//EN"
 "http://www.w3.org/TR/2001/REC-SVG-20010904/DTD/svg10.dtd">
<svg version="1.0" xmlns="http://www.w3.org/2000/svg"
 width="500.000000pt" height="892.000000pt" viewBox="0 0 500.000000 892.000000"
 preserveAspectRatio="xMidYMid meet">

<g transform="translate(0.000000,892.000000) scale(0.100000,-0.100000)"
fill="#000000" stroke="none">
<path d="M0 4460 l0 -4460 2500 0 2500 0 0 3810 c0 2096 -2 3810 -4 3810 -11
0 -1868 -1068 -1869 -1075 -1 -4 54 -40 123 -79 l125 -72 3 -507 2 -507 -47
-30 c-67 -42 -87 -46 -121 -21 -16 11 -40 25 -53 31 -13 5 -31 14 -39 19 -25
15 -188 91 -195 91 -4 0 -4 -11 -1 -25 4 -14 1 -35 -5 -48 -12 -21 -38 -127
-39 -156 0 -11 4 -9 15 5 19 25 19 15 -1 -31 -8 -21 -13 -44 -10 -51 3 -8 2
-13 -2 -13 -21 3 -32 -3 -32 -17 0 -8 4 -12 10 -9 6 4 7 -1 3 -11 -4 -11 -8
-13 -11 -6 -2 8 -11 6 -30 -6 -26 -16 -26 -16 -13 1 7 9 10 17 5 17 -4 0 -3 5
4 12 8 8 8 17 1 31 -8 14 -8 17 0 13 14 -9 38 49 52 127 6 34 17 76 24 93 20
46 8 80 -44 124 -25 22 -50 40 -56 40 -5 0 -16 4 -24 9 -11 7 -5 23 27 77 64
108 130 400 92 405 -5 1 -14 2 -19 3 -5 0 -12 3 -15 7 -7 7 22 321 32 351 5
13 8 30 7 38 -1 8 -3 23 -3 33 -1 9 -9 17 -17 17 -19 0 -38 47 -32 80 7 36 -9
60 -42 60 -31 0 -65 32 -74 70 -4 14 -20 33 -37 43 -16 10 -30 22 -30 27 0 5
-17 12 -37 15 -21 3 -50 13 -65 21 -25 14 -29 13 -48 -6 -26 -26 -28 -25 -23
3 3 14 -2 29 -11 36 -24 20 -110 -24 -130 -66 -17 -35 -40 -43 -50 -17 -9 24
-92 -28 -88 -56 2 -13 -1 -18 -10 -15 -8 3 -33 -8 -56 -25 -23 -16 -47 -30
-52 -30 -6 0 -10 -6 -9 -12 4 -33 -2 -49 -18 -47 -10 1 -23 1 -29 0 -15 -1
-24 -35 -13 -52 5 -8 2 -20 -8 -31 -11 -12 -13 -21 -6 -30 6 -7 9 -28 7 -47
-2 -18 3 -47 11 -64 8 -16 15 -42 15 -56 0 -14 7 -44 15 -66 20 -56 20 -165 0
-165 -8 0 -18 -12 -21 -26 -9 -35 3 -175 16 -188 6 -6 10 -23 10 -38 0 -23 4
-28 25 -28 20 0 25 -5 26 -27 0 -16 6 -44 13 -63 13 -34 5 -75 -17 -91 -4 -3
-7 -12 -5 -20 2 -8 -2 -13 -9 -12 -6 1 -14 -4 -17 -12 -4 -12 -1 -12 19 -3 13
6 26 18 28 27 3 10 5 8 6 -6 0 -13 -4 -23 -9 -23 -6 0 -9 -31 -8 -80 2 -44 5
-80 8 -80 3 0 7 -12 8 -26 1 -15 8 -34 15 -42 6 -8 12 -18 12 -21 0 -3 3 -5 6
-4 3 1 6 -18 6 -43 0 -61 -16 -45 -62 64 -21 48 -43 98 -50 112 -20 38 -35 89
-36 124 l-1 31 -10 -27 c-5 -16 -16 -28 -24 -28 -19 0 -18 19 2 27 11 4 12 8
4 13 -14 8 -66 0 -53 -9 5 -3 15 -37 21 -75 12 -76 4 -101 -44 -126 -23 -13
-48 -52 -63 -102 -5 -16 -14 -13 -72 21 -36 22 -86 62 -112 90 l-47 50 0 480
0 481 38 23 c20 13 83 50 140 82 57 31 106 63 109 71 3 8 10 11 17 7 6 -4 5 0
-2 9 -11 14 -10 18 4 26 11 6 15 17 11 31 -4 18 -2 19 13 11 13 -7 21 -7 25 0
4 6 3 9 -2 8 -4 -2 -9 2 -10 7 -1 6 6 9 17 9 17 -1 25 11 22 37 -1 3 10 5 22
4 23 -3 28 8 13 31 -4 7 1 14 11 16 10 3 19 12 19 21 0 9 -4 14 -8 12 -9 -6
-6 16 4 33 5 7 14 9 20 5 8 -5 8 -2 -1 9 -10 13 -9 18 11 31 12 8 23 24 24 36
1 12 9 28 17 37 9 8 16 20 16 25 0 6 6 7 13 3 9 -5 9 -4 0 6 -9 9 -7 20 8 47
11 19 14 31 7 27 -9 -6 -9 -3 1 9 7 9 17 15 20 12 4 -2 8 2 8 10 0 8 -5 12
-11 8 -6 -3 2 6 18 21 16 14 24 26 17 26 -9 0 -9 5 -1 20 6 11 18 20 26 20 8
0 12 -5 9 -10 -4 -6 -12 -7 -18 -3 -7 3 -3 -3 7 -15 21 -25 36 -31 16 -7 -11
14 -7 19 13 16 11 -2 8 6 -9 23 -15 16 -12 36 7 36 6 0 8 -4 5 -8 -12 -20 10
-28 29 -10 20 19 20 19 0 12 -19 -8 -19 -7 -3 16 9 14 21 24 26 23 11 -3 10
22 -1 33 -8 9 12 36 22 29 4 -2 8 2 8 10 0 8 -4 12 -8 10 -4 -3 -6 3 -5 12 2
10 14 21 27 24 13 4 18 7 11 8 -9 1 -10 6 -3 20 6 10 7 21 4 25 -3 3 1 6 10 6
10 0 17 7 17 15 0 8 5 15 12 15 6 0 8 3 5 7 -4 3 2 17 14 29 14 15 17 24 9 29
-8 5 -8 10 1 21 6 7 15 12 18 9 4 -2 8 2 8 10 0 8 -5 11 -11 8 -6 -4 1 7 15
24 26 31 26 31 28 239 2 138 6 213 14 222 14 17 19 44 6 37 -5 -4 -6 1 -3 10
4 9 12 14 19 12 6 -3 12 1 12 9 0 7 -3 11 -7 9 -4 -2 -7 2 -7 9 0 8 6 12 14 9
9 -3 11 0 7 10 -6 17 28 41 41 29 5 -4 5 -1 1 6 -4 7 -11 10 -15 8 -4 -3 -8 1
-8 9 0 8 3 13 5 10 3 -3 16 5 29 17 19 17 23 19 17 5 -3 -9 -10 -17 -14 -17
-5 0 -7 -8 -5 -17 1 -10 -4 -25 -12 -35 -10 -11 -11 -18 -3 -23 8 -5 6 -14 -7
-28 l-18 -22 22 19 c18 15 20 22 12 33 -6 7 -10 13 -8 14 2 0 12 2 22 4 23 4
35 15 17 15 -9 0 -7 5 6 16 10 8 12 12 4 8 -13 -7 -13 -5 -1 9 7 9 17 15 20
12 4 -2 8 2 8 10 0 8 -5 11 -11 8 -5 -4 0 8 12 25 13 17 27 34 33 38 7 4 6 10
-1 19 -8 10 -4 14 17 20 21 5 24 8 12 16 -9 5 -10 9 -2 9 6 0 10 9 8 20 -2 11
1 19 8 17 6 -1 11 3 12 8 0 6 4 16 9 24 7 11 6 12 -5 6 -12 -8 -12 -6 0 8 7 9
18 14 24 10 5 -3 7 -1 3 5 -3 5 -1 12 6 14 6 2 12 12 14 21 1 9 -2 14 -8 11
-5 -3 -4 3 4 15 7 12 20 21 28 21 13 0 13 -1 0 -10 -8 -5 -10 -10 -4 -10 13 0
13 -42 -1 -53 -6 -5 -4 -7 5 -4 8 2 14 12 12 22 -3 13 1 16 13 11 11 -4 14 -2
8 7 -11 17 -13 38 -3 32 4 -3 14 3 21 12 12 14 12 15 0 9 -8 -5 -6 3 5 20 19
27 19 28 0 21 -19 -8 -19 -7 -1 13 10 11 23 20 29 20 6 0 4 -5 -4 -11 -12 -8
-12 -10 -1 -7 8 2 16 15 18 29 2 13 11 30 20 37 9 6 13 12 9 12 -5 0 -2 8 5
17 12 15 12 16 -1 8 -13 -8 -13 -6 -1 8 7 9 18 14 25 11 6 -3 0 4 -14 16 -24
21 49 -15 156 -77 35 -20 43 -21 53 -9 9 10 9 16 1 21 -8 5 -6 13 6 26 13 15
14 19 3 19 -10 1 -9 4 4 11 13 8 15 14 7 29 -7 13 -7 21 1 26 8 4 7 9 -2 15
-19 12 -32 11 -24 -1 3 -5 -4 -10 -16 -10 -16 0 -19 3 -12 13 6 6 9 24 8 39
-1 15 2 25 6 22 5 -3 6 2 3 10 -5 14 -173 16 -1595 16 l-1589 0 0 -4460z
m2890 4374 c0 -2 -9 0 -20 6 -11 6 -20 13 -20 16 0 2 9 0 20 -6 11 -6 20 -13
20 -16z m70 -40 c0 -2 -13 2 -30 11 -16 9 -30 18 -30 21 0 2 14 -2 30 -11 17
-9 30 -18 30 -21z m-60 -138 c0 -2 -8 -10 -17 -17 -16 -13 -17 -12 -4 4 13 16
21 21 21 13z m-23 -71 c0 -8 -9 -15 -19 -15 -16 0 -17 2 -6 15 17 19 25 19 25
0z m-857 -1545 c0 -11 4 -20 9 -20 5 0 7 9 4 20 -3 11 0 20 6 20 6 0 11 -14
11 -31 0 -26 -3 -30 -22 -27 -17 2 -24 11 -26 31 -2 15 1 27 7 27 6 0 11 -9
11 -20z m114 12 c3 -5 2 -22 -3 -37 -4 -18 -10 -25 -14 -18 -4 7 -15 9 -24 6
-13 -5 -15 -2 -10 11 4 10 7 24 7 32 0 15 35 20 44 6z m-173 -14 c-1 -5 -1
-17 -1 -28 0 -11 -4 -20 -10 -20 -5 0 -10 6 -10 14 0 8 -5 16 -12 18 -16 6 1
30 18 26 8 -2 15 -6 15 -10z m-61 -60 c0 -27 -47 -24 -55 3 -9 29 2 36 20 13
14 -18 15 -17 9 11 -5 29 -5 29 10 11 9 -11 16 -28 16 -38z m-89 -5 c10 -68 3
-81 -24 -39 -12 17 -13 26 -4 35 13 13 26 15 28 4z m-86 -105 c27 -12 29 -16
15 -38 -7 -12 -12 -12 -34 0 -25 13 -33 30 -19 43 8 9 8 9 38 -5z m733 -71 c2
-11 -3 -17 -16 -17 -11 0 -22 -3 -25 -7 -2 -5 -2 -2 -1 5 2 6 -2 12 -9 12 -7
0 -3 7 8 15 23 18 39 15 43 -8z m-748 -3 c2 -3 -1 -9 -8 -13 -7 -4 -10 -15 -6
-24 5 -15 2 -15 -25 -6 -33 12 -42 29 -15 29 14 0 15 2 3 17 -13 15 -11 16 16
9 16 -4 32 -10 35 -12z m777 -70 c3 -8 -2 -23 -11 -32 -15 -15 -17 -15 -32 0
-21 21 -11 48 16 48 11 0 23 -7 27 -16z m-847 -4 c0 -5 9 -10 20 -10 31 0 23
-17 -10 -22 -26 -4 -30 -1 -30 19 0 13 5 23 10 23 6 0 10 -4 10 -10z m857
-105 c2 -17 1 -17 -3 -2 -6 20 -41 19 -36 -1 1 -7 -2 -12 -8 -12 -11 0 -13 23
-3 34 14 14 48 1 50 -19z m-829 -37 c21 -21 13 -38 -18 -38 -22 0 -30 5 -30
18 0 32 25 43 48 20z m818 -48 c3 -22 2 -23 -9 -8 -10 13 -17 14 -32 5 -17 -9
-18 -8 -8 5 7 8 9 18 5 22 -4 5 4 6 17 4 17 -2 25 -10 27 -28z m-794 -51 c-14
-13 -55 -22 -48 -10 4 6 14 11 22 11 8 0 14 8 14 18 0 14 2 15 10 2 5 -8 6
-18 2 -21z m774 -11 c4 -5 1 -15 -5 -21 -8 -8 -11 -8 -11 2 0 7 -4 9 -10 6 -5
-3 -10 0 -10 7 0 9 -3 9 -10 -2 -8 -13 -10 -13 -10 1 0 9 3 18 6 21 7 8 43 -2
50 -14z m-44 -68 c16 0 17 -3 7 -22 -10 -18 -13 -20 -17 -8 -3 8 -11 19 -18
23 -8 4 -14 13 -14 19 0 9 3 9 12 0 7 -7 20 -12 30 -12z m-48 -62 c8 -13 7
-21 -3 -30 -12 -11 -13 -10 -8 3 4 13 1 15 -14 12 -14 -4 -19 0 -19 17 0 26
27 24 44 -2z m-64 -43 c14 -16 7 -45 -11 -45 -8 0 -8 4 1 15 11 13 10 14 -5 9
-13 -5 -16 -4 -11 4 4 7 2 12 -4 12 -6 0 -8 5 -5 10 9 14 21 12 35 -5z m-75
-73 c-3 -3 -15 4 -27 16 l-22 22 22 0 c12 0 23 6 23 13 1 6 4 -1 6 -16 3 -16
2 -32 -2 -35z m-75 -2 c0 -10 6 -21 13 -23 6 -3 3 -6 -8 -6 -15 -1 -20 6 -22
29 -1 18 2 28 7 25 6 -4 10 -15 10 -25z m400 -330 c0 -5 -17 -9 -37 -9 -38 1
-38 1 -8 9 43 11 45 11 45 0z m253 4 c9 -9 -4 -35 -14 -28 -5 3 -9 12 -9 20 0
14 12 19 23 8z m-213 -173 c0 -4 -21 -16 -46 -26 -56 -21 -174 -14 -174 11 0
11 6 13 23 8 32 -10 102 -8 123 5 23 13 74 15 74 2z m98 -145 c-24 -38 -38
-45 -38 -22 0 19 53 82 58 68 2 -6 -7 -27 -20 -46z m-512 -168 c0 -13 4 -31 8
-40 5 -10 4 -18 -1 -18 -11 0 -33 66 -25 74 11 11 17 6 18 -16z m741 -58 c1
-11 -2 -20 -7 -20 -6 0 -7 17 -1 38 3 8 7 -1 8 -18z m-911 -107 c13 -32 24
-67 22 -79 l-3 -21 -37 23 c-35 23 -38 28 -38 72 0 82 21 84 56 5z m269 -113
c46 -57 74 -82 121 -106 46 -24 59 -35 51 -43 -9 -9 -8 -14 3 -21 11 -7 11
-10 2 -10 -7 0 -15 6 -17 13 -6 13 -54 15 -75 2 -9 -6 -11 -4 -5 4 5 9 2 12
-11 9 -21 -5 -101 37 -121 62 -26 32 -11 32 22 0 19 -19 35 -28 35 -21 0 7
-14 24 -30 38 -17 13 -28 29 -25 33 3 5 -1 12 -8 17 -22 13 -47 78 -47 120 l1
38 22 -30 c12 -16 49 -64 82 -105z m398 123 c-7 -2 -13 -13 -13 -23 0 -16 -27
-36 -37 -27 -6 7 38 57 50 56 8 0 8 -2 0 -6z m-77 -71 c38 4 41 -18 4 -37 -24
-12 -29 -19 -21 -29 17 -20 -11 -38 -51 -35 -18 2 -61 18 -95 35 -34 18 -64
30 -66 27 -3 -2 -8 0 -12 6 -3 6 0 11 7 12 42 2 79 8 128 21 33 9 60 11 67 6
6 -5 24 -8 39 -6z m155 -105 c-11 -18 -21 -25 -21 -17 0 13 -1 13 -10 0 -6 -9
-6 -18 0 -24 14 -14 12 -26 -2 -23 -7 1 -18 13 -24 27 -10 23 -8 28 30 62 47
41 61 29 27 -25z m79 3 c0 -5 -5 -10 -11 -10 -5 0 -7 5 -4 10 3 6 8 10 11 10
2 0 4 -4 4 -10z m-150 -29 c0 -11 -31 -24 -39 -16 -3 3 1 10 9 15 19 12 30 12
30 1z m-189 -88 c-12 -20 -14 -14 -5 12 4 9 9 14 11 11 3 -2 0 -13 -6 -23z
m36 -5 c-3 -8 -6 -5 -6 6 -1 11 2 17 5 13 3 -3 4 -12 1 -19z m-143 -4 c3 -8 2
-12 -4 -9 -6 3 -10 10 -10 16 0 14 7 11 14 -7z m446 -464 c0 -27 3 -30 30 -30
34 0 50 -23 50 -70 0 -57 -14 -69 -75 -69 l-55 1 0 99 c0 99 0 99 25 99 21 0
25 -5 25 -30z m248 13 c5 -17 -26 -29 -40 -15 -6 6 -7 15 -3 22 9 14 37 9 43
-7z m212 -83 l0 -100 -25 0 -25 0 0 100 0 100 25 0 25 0 0 -100z m-1550 10 l0
-80 40 0 c29 0 40 -4 40 -15 0 -12 -14 -15 -65 -15 l-65 0 0 95 c0 95 0 95 25
95 25 0 25 -1 25 -80z m854 64 c34 -33 10 -60 -25 -28 -38 35 -78 -13 -64 -77
6 -28 35 -46 55 -34 16 10 12 45 -5 45 -8 0 -15 7 -15 15 0 11 11 15 40 15 40
0 40 0 40 -39 0 -47 -26 -71 -78 -71 -50 0 -82 37 -82 95 0 35 6 52 25 70 28
29 85 34 109 9z m-714 -90 c0 -47 3 -55 18 -52 13 2 18 15 20 56 3 44 6 52 23
52 17 0 19 -7 19 -69 l0 -69 -55 -1 c-51 0 -57 2 -65 25 -6 14 -10 45 -10 70
0 40 2 44 25 44 24 0 25 -3 25 -56z m204 40 c9 -8 16 -20 16 -25 0 -13 -34
-11 -47 2 -17 17 -33 2 -33 -31 0 -33 16 -48 33 -31 13 13 47 15 47 2 0 -37
-70 -53 -102 -24 -23 20 -24 80 -1 105 20 22 66 24 87 2z m138 -1 c13 -12 18
-30 18 -69 l0 -53 -42 0 c-62 0 -78 7 -78 33 0 28 18 46 47 46 14 0 23 6 23
15 0 13 -7 15 -35 9 -36 -6 -44 3 -23 24 17 17 68 15 90 -5z m142 -5 c14 -23
0 -35 -24 -20 -23 14 -40 16 -40 3 0 -5 14 -12 30 -16 40 -9 54 -35 34 -63
-21 -31 -77 -30 -99 1 -14 20 -14 22 1 25 9 2 21 -1 27 -7 6 -6 17 -11 24 -11
24 0 13 16 -19 31 -59 26 -44 83 20 77 19 -2 40 -11 46 -20z m380 6 c11 -10
16 -34 16 -69 l0 -54 -42 0 c-62 0 -78 7 -78 33 0 30 18 46 53 46 19 0 27 4
24 13 -2 7 -18 11 -41 9 -38 -3 -48 10 -18 27 26 15 69 13 86 -5z m266 -4 c0
-10 -9 -20 -20 -23 -16 -4 -20 -14 -20 -51 0 -39 -3 -46 -20 -46 -18 0 -20 7
-20 69 l0 70 40 -1 c31 0 40 -4 40 -18z m60 -50 c0 -63 -2 -70 -20 -70 -18 0
-20 7 -20 70 0 63 2 70 20 70 18 0 20 -7 20 -70z m131 60 c12 -7 19 -21 19
-40 0 -28 -2 -30 -40 -30 -22 0 -40 -5 -40 -10 0 -17 27 -22 49 -11 24 14 39
-3 21 -24 -17 -20 -69 -19 -92 2 -23 20 -24 80 -1 105 18 20 54 23 84 8z
m-1184 -280 c43 -26 54 -80 26 -118 -11 -15 -28 -28 -37 -30 -23 -5 -20 26 5
47 17 13 20 24 15 47 -6 28 -9 30 -56 30 -47 0 -50 -2 -56 -30 -5 -23 -2 -34
14 -47 12 -9 18 -19 15 -23 -3 -3 -12 -1 -20 6 -11 8 -12 7 -7 -5 3 -9 12 -18
20 -20 10 -3 9 -4 -2 -3 -9 0 -26 13 -37 28 -28 38 -17 92 26 118 18 11 39 20
47 20 8 0 29 -9 47 -20z m403 -20 c0 -13 7 -20 18 -20 25 0 42 -20 42 -50 0
-35 -17 -50 -57 -50 l-33 0 0 70 c0 56 3 70 15 70 8 0 15 -9 15 -20z m160 10
c0 -5 -4 -10 -10 -10 -5 0 -10 5 -10 10 0 6 5 10 10 10 6 0 10 -4 10 -10z
m130 -60 c0 -40 -4 -70 -10 -70 -6 0 -10 30 -10 70 0 40 4 70 10 70 6 0 10
-30 10 -70z m-430 -29 c0 -39 -5 -63 -14 -71 -17 -13 -62 -10 -58 5 2 6 14 9
27 7 14 -2 25 1 25 7 0 6 -11 11 -25 11 -28 0 -42 33 -31 75 5 21 12 25 41 25
l35 0 0 -59z m88 47 c7 -7 12 -29 12 -49 0 -36 -1 -37 -37 -36 -33 2 -38 5
-38 27 0 20 6 26 30 30 20 4 26 8 17 13 -7 5 -21 5 -32 2 -19 -6 -27 5 -13 18
11 11 48 8 61 -5z m172 3 c0 -5 -7 -11 -15 -15 -9 -3 -15 -19 -15 -41 0 -19
-4 -35 -10 -35 -5 0 -10 23 -10 50 0 47 2 50 25 50 14 0 25 -4 25 -9z m40 -41
c0 -38 -4 -50 -15 -50 -11 0 -15 12 -15 50 0 38 4 50 15 50 11 0 15 -12 15
-50z m90 30 c15 -27 5 -40 -31 -40 -19 0 -28 -4 -23 -11 3 -6 17 -9 31 -6 15
3 22 0 20 -7 -2 -6 -16 -12 -30 -14 -35 -4 -56 35 -39 73 14 31 56 34 72 5z
m82 -17 c2 -27 8 -39 21 -41 14 -3 17 4 17 37 0 23 5 41 10 41 6 0 10 -22 10
-50 l0 -50 -34 0 c-38 0 -46 12 -46 66 0 46 18 43 22 -3z m152 21 c4 -9 3 -20
0 -23 -4 -3 -9 0 -11 7 -3 6 -13 12 -24 12 -15 0 -19 -7 -19 -31 0 -30 2 -31
31 -25 27 5 30 4 19 -9 -27 -32 -70 -10 -70 35 0 14 5 31 12 38 17 17 55 15
62 -4z m84 4 c7 -7 12 -29 12 -49 0 -36 -1 -37 -37 -36 -33 2 -38 5 -38 27 0
20 6 26 30 30 20 4 26 8 17 13 -7 5 -21 5 -32 2 -19 -6 -27 5 -13 18 11 11 48
8 61 -5z m100 -6 c3 -9 -3 -11 -22 -6 -15 3 -26 2 -26 -4 0 -5 12 -13 26 -16
19 -5 25 -12 22 -29 -2 -17 -10 -22 -32 -22 -16 0 -31 6 -34 13 -3 9 3 11 22
6 15 -3 26 -2 26 4 0 5 -11 13 -25 16 -24 6 -34 34 -18 50 11 11 56 2 61 -12z
m-1538 -522 c0 -15 7 -20 25 -20 32 0 49 -38 35 -75 -8 -20 -16 -25 -45 -25
l-35 0 0 70 c0 40 4 70 10 70 6 0 10 -9 10 -20z m960 10 c0 -5 -4 -10 -10 -10
-5 0 -10 5 -10 10 0 6 5 10 10 10 6 0 10 -4 10 -10z m590 -60 l0 -70 -35 0
c-29 0 -37 5 -45 25 -14 37 3 75 35 75 18 0 25 5 25 20 0 11 5 20 10 20 6 0
10 -30 10 -70z m580 0 l0 -70 -35 0 c-29 0 -36 4 -41 25 -11 42 3 75 31 75 18
0 25 5 25 20 0 11 5 20 10 20 6 0 10 -30 10 -70z m-2451 4 c24 -63 25 -74 11
-74 -5 0 -10 7 -10 15 0 21 -50 19 -66 -2 -22 -32 -24 -8 -3 47 34 90 38 91
68 14z m1667 31 c9 -8 11 -15 5 -15 -15 0 -14 -67 2 -73 6 -2 9 -8 5 -12 -17
-19 -38 6 -38 45 0 22 -5 40 -10 40 -6 0 -5 6 2 15 16 18 16 18 34 0z m440 0
c9 -8 11 -15 5 -15 -15 0 -14 -67 2 -73 6 -2 9 -8 5 -12 -17 -19 -38 6 -38 45
0 22 -4 40 -10 40 -5 0 -10 -20 -10 -45 0 -25 -4 -45 -10 -45 -5 0 -10 18 -10
40 0 33 -3 40 -20 40 -17 0 -20 -7 -20 -40 0 -22 -4 -40 -10 -40 -5 0 -10 23
-10 50 l0 51 47 -3 c29 -1 48 3 51 10 5 16 10 15 28 -3z m-2010 -37 l7 -33 10
33 c6 17 14 32 18 32 5 0 15 -15 23 -32 14 -33 14 -33 15 -6 1 24 16 46 26 36
7 -7 -22 -92 -33 -96 -5 -1 -14 12 -18 30 l-7 33 -14 -32 c-18 -44 -29 -41
-42 11 -13 54 -13 56 -2 56 5 0 13 -15 17 -32z m182 20 c7 -7 12 -20 12 -30 0
-13 -8 -18 -30 -18 -16 0 -30 -5 -30 -11 0 -6 11 -9 25 -7 13 2 25 -1 27 -7 2
-5 -12 -11 -30 -13 -27 -3 -34 1 -42 24 -19 49 34 96 68 62z m240 0 c7 -7 12
-24 12 -38 0 -32 -17 -50 -47 -50 -16 0 -23 -6 -23 -20 0 -11 -4 -20 -10 -20
-6 0 -10 30 -10 70 l0 70 33 0 c18 0 38 -5 45 -12z m72 3 c0 -5 -7 -11 -15
-15 -9 -3 -15 -19 -15 -41 0 -19 -4 -35 -10 -35 -5 0 -10 23 -10 50 0 47 2 50
25 50 14 0 25 -4 25 -9z m92 -16 c16 -35 -3 -75 -35 -75 -30 0 -47 18 -47 50
0 52 61 71 82 25z m98 -34 c0 -39 -5 -63 -14 -71 -17 -13 -62 -10 -58 5 2 6
14 9 27 7 14 -2 25 1 25 7 0 6 -11 11 -25 11 -28 0 -42 33 -31 75 5 21 12 25
41 25 l35 0 0 -59z m70 49 c0 -5 -7 -10 -15 -10 -11 0 -15 -11 -15 -40 0 -22
-4 -40 -10 -40 -5 0 -10 23 -10 50 0 47 2 50 25 50 14 0 25 -4 25 -10z m78
-42 l3 -48 -34 0 c-23 0 -37 6 -41 16 -8 21 11 44 35 44 11 0 19 5 19 11 0 7
-10 9 -25 5 -14 -4 -25 -3 -25 2 0 16 14 23 40 20 22 -3 25 -8 28 -50z m154
38 c11 -17 9 -86 -2 -86 -5 0 -10 18 -10 40 0 33 -3 40 -20 40 -17 0 -20 -7
-20 -40 0 -22 -4 -40 -10 -40 -5 0 -10 18 -10 40 0 33 -3 40 -20 40 -17 0 -20
-7 -20 -40 0 -22 -4 -40 -10 -40 -5 0 -10 22 -10 50 l0 50 63 -1 c34 -1 65 -6
69 -13z m156 -38 c2 -29 -1 -48 -7 -48 -6 0 -11 18 -11 41 0 33 -3 40 -17 37
-13 -2 -19 -14 -21 -41 -4 -50 -22 -48 -22 3 0 29 -4 40 -15 40 -11 0 -15 -11
-15 -40 0 -29 -4 -40 -15 -40 -11 0 -15 12 -15 50 l0 50 68 -3 67 -2 3 -47z
m42 2 c0 -27 -4 -50 -10 -50 -5 0 -10 23 -10 50 0 28 5 50 10 50 6 0 10 -22
10 -50z m98 -2 c2 -29 -1 -48 -7 -48 -6 0 -11 18 -11 41 0 33 -3 40 -17 37
-13 -2 -19 -14 -21 -41 -5 -55 -22 -45 -22 14 l0 50 38 -3 c37 -3 37 -3 40
-50z m102 -7 c0 -39 -5 -63 -14 -71 -17 -13 -62 -10 -58 5 2 6 14 9 27 7 14
-2 25 1 25 7 0 6 -11 11 -25 11 -28 0 -42 33 -31 75 5 21 12 25 41 25 l35 0 0
-59z m131 43 c12 -15 10 -16 -19 -10 -21 5 -32 4 -32 -3 0 -6 6 -11 13 -11 7
0 22 -6 32 -14 17 -12 17 -16 5 -30 -15 -19 -61 -18 -68 1 -2 9 5 11 29 6 23
-4 30 -3 25 5 -4 7 -13 12 -20 12 -20 0 -39 27 -32 45 7 20 50 19 67 -1z m99
-24 c0 -33 3 -40 20 -40 17 0 20 7 20 40 0 22 5 40 10 40 6 0 10 -23 10 -51
l0 -50 -37 3 c-38 3 -38 3 -41 51 -2 28 1 47 7 47 6 0 11 -18 11 -40z m250 20
c15 -27 5 -40 -31 -40 -19 0 -28 -4 -23 -11 3 -6 17 -9 31 -6 15 3 22 0 20 -7
-2 -6 -16 -12 -30 -14 -35 -4 -56 35 -39 73 14 31 56 34 72 5z m240 -21 c0
-33 3 -40 18 -37 12 2 18 14 20 41 5 55 22 45 22 -14 l0 -50 -37 3 c-38 3 -38
3 -41 51 -2 28 1 47 7 47 6 0 11 -18 11 -41z m148 -11 c2 -29 -1 -48 -7 -48
-6 0 -11 18 -11 40 0 29 -4 40 -15 40 -11 0 -15 -11 -15 -40 0 -29 -4 -40 -15
-40 -11 0 -15 12 -15 51 l0 50 38 -3 c37 -3 37 -3 40 -50z m190 40 c7 -7 12
-20 12 -30 0 -13 -8 -18 -30 -18 -16 0 -30 -5 -30 -11 0 -6 11 -9 25 -7 13 2
25 -1 27 -7 4 -15 -41 -18 -58 -5 -30 26 -11 90 26 90 9 0 21 -5 28 -12z m72
3 c0 -5 -7 -11 -15 -15 -9 -3 -15 -19 -15 -41 0 -19 -4 -35 -10 -35 -5 0 -10
23 -10 50 0 47 2 50 25 50 14 0 25 -4 25 -9z m-1090 -171 c0 -5 -4 -10 -10
-10 -5 0 -10 5 -10 10 0 6 5 10 10 10 6 0 10 -4 10 -10z m-354 -25 c9 -8 11
-15 5 -15 -15 0 -14 -67 2 -73 6 -2 9 -8 5 -12 -17 -19 -38 6 -38 45 0 22 -4
40 -10 40 -5 0 -10 -5 -10 -10 0 -6 -11 -8 -25 -4 -14 3 -25 2 -25 -4 0 -5 12
-13 26 -16 19 -5 25 -12 22 -29 -4 -27 -48 -36 -68 -13 -11 14 -9 15 19 10 38
-8 43 11 5 20 -19 5 -25 12 -22 29 2 18 10 22 43 23 21 1 41 6 43 13 5 15 10
14 28 -4z m305 3 c1 -7 0 -28 -1 -46 -1 -18 4 -40 10 -48 10 -11 9 -14 -9 -14
-18 0 -21 6 -21 39 0 22 -4 43 -10 46 -5 3 -10 -1 -10 -9 0 -9 -4 -16 -10 -16
-5 0 -10 5 -10 10 0 6 -9 10 -20 10 -16 0 -20 -7 -20 -31 0 -30 2 -31 31 -25
27 5 30 4 19 -9 -27 -32 -70 -10 -70 36 0 35 20 50 61 47 19 -1 34 3 37 10 5
16 22 16 23 0z m-642 -33 c3 -17 1 -18 -13 -6 -22 19 -48 6 -44 -21 3 -19 8
-23 37 -20 29 2 32 0 21 -13 -36 -44 -96 7 -72 61 10 20 18 25 39 22 18 -2 29
-10 32 -23z m97 0 c15 -23 15 -27 0 -50 -36 -54 -100 -12 -76 50 7 17 17 25
35 25 15 0 31 -9 41 -25z m98 9 c10 -25 7 -84 -4 -84 -5 0 -10 18 -10 40 0 33
-3 40 -20 40 -17 0 -20 -7 -20 -40 0 -22 -4 -40 -10 -40 -5 0 -10 23 -10 50
l0 50 34 0 c22 0 36 -6 40 -16z m216 7 c0 -5 -7 -11 -15 -15 -9 -3 -15 -19
-15 -41 0 -19 -4 -35 -10 -35 -5 0 -10 23 -10 50 0 47 2 50 25 50 14 0 25 -4
25 -9z m32 -28 c2 -27 8 -39 21 -41 14 -3 17 4 17 37 0 23 5 41 10 41 6 0 10
-22 10 -50 l0 -50 -34 0 c-38 0 -46 12 -46 66 0 46 18 43 22 -3z m248 -13 c0
-27 -4 -50 -10 -50 -5 0 -10 23 -10 50 0 28 5 50 10 50 6 0 10 -22 10 -50z
m98 38 c7 -7 12 -24 12 -38 0 -31 -17 -50 -45 -50 -28 0 -45 19 -45 50 0 31
17 50 45 50 12 0 26 -5 33 -12z m100 -40 c2 -29 -1 -48 -7 -48 -6 0 -11 18
-11 41 0 33 -3 40 -17 37 -13 -2 -19 -14 -21 -41 -5 -55 -22 -45 -22 14 l0 50
38 -3 c37 -3 37 -3 40 -50z m42 -38 c0 -5 -4 -10 -10 -10 -5 0 -10 5 -10 10 0
6 5 10 10 10 6 0 10 -4 10 -10z m-741 -948 c37 -20 71 -73 71 -110 0 -40 -28
-91 -62 -112 -18 -11 -36 -20 -40 -20 -5 0 -8 20 -8 45 0 33 4 45 15 45 8 0
15 9 15 20 0 11 -7 20 -15 20 -8 0 -15 9 -15 19 0 10 7 21 15 25 20 7 19 36
-1 36 -32 0 -54 -20 -54 -50 0 -23 -4 -30 -20 -30 -13 0 -20 -7 -20 -20 0 -13
7 -20 20 -20 17 0 20 -7 20 -45 0 -51 -9 -55 -56 -26 -68 41 -81 136 -27 194
48 50 103 60 162 29z m652 -1 c22 -18 24 -27 24 -111 0 -120 -10 -130 -130
-130 -120 0 -130 10 -130 130 0 84 2 93 24 111 34 28 178 28 212 0z m-1212
-25 c8 -9 11 -45 9 -98 l-3 -83 -123 -3 c-143 -3 -137 -8 -137 106 0 54 4 75
15 82 25 16 226 12 239 -4z m1819 8 c27 -6 29 -9 25 -43 -12 -95 -72 -151
-162 -151 -31 0 -63 5 -71 10 -12 8 -11 10 7 10 12 0 29 3 38 6 14 6 13 8 -5
21 -11 8 -20 20 -20 27 0 6 -6 18 -12 24 -13 13 -20 70 -11 85 2 4 17 -1 32
-12 43 -31 79 -37 87 -15 16 44 31 50 92 38z"/>
<path d="M2444 6719 c-10 -17 13 -36 27 -22 12 12 4 33 -11 33 -5 0 -12 -5
-16 -11z"/>
<path d="M1636 6573 c-11 -11 -6 -23 9 -23 8 0 15 4 15 9 0 13 -16 22 -24 14z"/>
<path d="M2847 4424 c-4 -4 -7 -23 -7 -41 0 -27 4 -34 18 -31 12 2 17 13 17
37 0 33 -13 49 -28 35z"/>
<path d="M2177 4373 c-12 -11 -8 -23 8 -23 8 0 15 7 15 15 0 16 -12 20 -23 8z"/>
<path d="M2695 4369 c-10 -15 1 -23 20 -15 9 3 13 10 10 16 -8 13 -22 13 -30
-1z"/>
<path d="M3155 4420 c-3 -5 3 -10 14 -10 12 0 21 5 21 10 0 6 -6 10 -14 10 -8
0 -18 -4 -21 -10z"/>
<path d="M2430 4080 c0 -25 4 -31 18 -28 11 2 17 12 17 28 0 16 -6 26 -17 28
-14 3 -18 -3 -18 -28z"/>
<path d="M2230 4080 c0 -23 4 -30 20 -30 16 0 20 7 20 30 0 23 -4 30 -20 30
-16 0 -20 -7 -20 -30z"/>
<path d="M2335 4069 c-10 -15 1 -23 20 -15 9 3 13 10 10 16 -8 13 -22 13 -30
-1z"/>
<path d="M2625 4100 c-4 -6 5 -10 20 -10 15 0 24 4 20 10 -3 6 -12 10 -20 10
-8 0 -17 -4 -20 -10z"/>
<path d="M2955 4069 c-10 -15 1 -23 20 -15 9 3 13 10 10 16 -8 13 -22 13 -30
-1z"/>
<path d="M1560 3520 c0 -23 4 -30 20 -30 16 0 20 7 20 30 0 23 -4 30 -20 30
-16 0 -20 -7 -20 -30z"/>
<path d="M3050 3520 c0 -23 4 -30 20 -30 16 0 20 7 20 30 0 23 -4 30 -20 30
-16 0 -20 -7 -20 -30z"/>
<path d="M3630 3520 c0 -23 4 -30 20 -30 16 0 20 7 20 30 0 23 -4 30 -20 30
-16 0 -20 -7 -20 -30z"/>
<path d="M1196 3544 c-9 -22 -8 -24 9 -24 8 0 15 6 15 14 0 22 -17 28 -24 10z"/>
<path d="M1470 3540 c0 -5 9 -10 20 -10 11 0 20 5 20 10 0 6 -9 10 -20 10 -11
0 -20 -4 -20 -10z"/>
<path d="M1704 3536 c-9 -24 4 -48 23 -44 12 2 18 12 18 28 0 29 -32 41 -41
16z"/>
<path d="M1860 3520 c0 -23 5 -30 19 -30 21 0 33 22 25 45 -4 8 -15 15 -25 15
-14 0 -19 -7 -19 -30z"/>
<path d="M1960 3520 c0 -23 4 -30 20 -30 16 0 20 7 20 30 0 23 -4 30 -20 30
-16 0 -20 -7 -20 -30z"/>
<path d="M2123 3513 c-20 -8 -15 -23 7 -23 11 0 20 7 20 15 0 15 -6 17 -27 8z"/>
<path d="M2660 3520 c0 -23 4 -30 20 -30 16 0 20 7 20 30 0 23 -4 30 -20 30
-16 0 -20 -7 -20 -30z"/>
<path d="M3145 3540 c-4 -6 5 -10 20 -10 15 0 24 4 20 10 -3 6 -12 10 -20 10
-8 0 -17 -4 -20 -10z"/>
<path d="M3730 3540 c0 -5 9 -10 20 -10 11 0 20 5 20 10 0 6 -9 10 -20 10 -11
0 -20 -4 -20 -10z"/>
<path d="M2110 3310 c0 -23 4 -30 20 -30 16 0 20 7 20 30 0 23 -4 30 -20 30
-16 0 -20 -7 -20 -30z"/>
<path d="M2804 3326 c-9 -24 4 -48 23 -44 12 2 18 12 18 28 0 29 -32 41 -41
16z"/>
<path d="M2860 2280 c0 -5 7 -10 15 -10 8 0 15 5 15 10 0 6 -7 10 -15 10 -8 0
-15 -4 -15 -10z"/>
<path d="M2790 2272 c-50 -16 -66 -74 -30 -107 41 -37 110 -9 110 45 0 38 -45
73 -80 62z m54 -44 c14 -23 -3 -52 -33 -56 -42 -6 -67 38 -39 66 17 17 58 11
72 -10z"/>
<path d="M1550 2211 c0 -28 3 -51 8 -51 11 1 67 49 62 53 -3 2 -20 14 -37 26
l-33 22 0 -50z"/>
<path d="M3203 8863 c0 -7 10 -13 21 -12 12 0 15 3 8 6 -6 2 -10 8 -8 12 3 4
-1 8 -8 8 -7 0 -13 -6 -13 -14z"/>
</g>
</svg>
