<svg width="358" height="540" fill="none" xmlns="http://www.w3.org/2000/svg"><mask id="a" style="mask-type:alpha" maskUnits="userSpaceOnUse" x="0" y="0" width="358" height="540"><path fill="#202024" d="M0 0h358v540H0z"/></mask><g mask="url(#a)"><path d="M358 61.492v-458.316L178.5-500-1-396.824V61.492l179.5 103.182L358 61.492z" fill="url(#paint0_linear_)"/><g style="mix-blend-mode:luminosity" opacity=".4"><path d="M.8-40.65V62.16l89.3 51.409 89.3-51.41V-40.65L90.1-92.06.8-40.65z" fill="url(#paint1_linear_)"/><path d="M.8-143.465v102.81l89.3 51.41 89.3-51.41v-102.81l-89.3-51.41-89.3 51.41z" fill="url(#paint2_linear_)"/><path d="M179.4 62.159v-102.81l89.3-51.41L358-40.65V62.16l-89.3 51.409-89.3-51.41z" fill="url(#paint3_linear_)"/><path d="M358-143.465v102.81l-89.3 51.41-89.3-51.41v-102.81l89.3-51.41 89.3 51.41z" fill="url(#paint4_linear_)"/><path d="M268.7 113.59V10.78l-89.3-51.409-89.3 51.41V113.59L179.4 165l89.3-51.41z" fill="url(#paint5_linear_)"/></g></g><defs><linearGradient id="paint0_linear_" x1="-1" y1="-484.234" x2="438.976" y2="-423.679" gradientUnits="userSpaceOnUse"><stop stop-color="#FF008E"/><stop offset="1" stop-color="#FFCD1E"/></linearGradient><linearGradient id="paint1_linear_" x1="90.101" y1="108.84" x2="1.185" y2="-42.896" gradientUnits="userSpaceOnUse"><stop stop-color="#8257E5"/><stop offset="1" stop-color="#FF008E" stop-opacity="0"/></linearGradient><linearGradient id="paint2_linear_" x1="90.101" y1="6.026" x2="1.185" y2="-145.711" gradientUnits="userSpaceOnUse"><stop stop-color="#8257E5"/><stop offset="1" stop-color="#FF008E" stop-opacity="0"/></linearGradient><linearGradient id="paint3_linear_" x1="358" y1="67.937" x2="179.676" y2="-39.672" gradientUnits="userSpaceOnUse"><stop stop-color="#FF008E" stop-opacity="0"/><stop offset="1" stop-color="#FFCD1E"/></linearGradient><linearGradient id="paint4_linear_" x1="268.7" y1="6.026" x2="357.615" y2="-145.711" gradientUnits="userSpaceOnUse"><stop stop-color="#8257E5"/><stop offset="1" stop-color="#FF008E" stop-opacity="0"/></linearGradient><linearGradient id="paint5_linear_" x1="179.4" y1="-35.901" x2="268.316" y2="115.836" gradientUnits="userSpaceOnUse"><stop stop-color="#8257E5"/><stop offset="1" stop-color="#FF008E" stop-opacity="0"/></linearGradient></defs></svg>